<svg xmlns="http://www.w3.org/2000/svg" viewBox="0 0 200 200" role="img" aria-label="10 Newtons"><circle cx="178.44" cy="52.22" r="6.59" fill="#4ea774"/><circle cx="10.19" cy="82.30" r="6.58" fill="#356b72"/><circle cx="154.08" cy="173.47" r="6.57" fill="#4aa973"/><circle cx="109.71" cy="9.60" r="6.56" fill="#379c72"/><circle cx="32.01" cy="159.89" r="6.55" fill="#306d6e"/><circle cx="190.28" cy="101.76" r="6.53" fill="#50a674"/><circle cx="34.85" cy="37.93" r="6.52" fill="#2f6e6d"/><circle cx="106.10" cy="189.46" r="6.51" fill="#349a72"/><circle cx="155.74" cy="30.16" r="6.50" fill="#4aa973"/><circle cx="12.04" cy="113.80" r="6.48" fill="#346b71"/><circle cx="173.92" cy="149.07" r="6.47" fill="#4da874"/><circle cx="78.72" cy="14.20" r="6.46" fill="#2b8770"/><circle cx="57.88" cy="177.36" r="6.45" fill="#2c766d"/><circle cx="183.01" cy="71.51" r="6.43" fill="#4ea774"/><circle cx="19.84" cy="65.07" r="6.42" fill="#326c70"/><circle cx="135.38" cy="179.61" r="6.41" fill="#46ab73"/><circle cx="127.59" cy="17.71" r="6.40" fill="#42a773"/><circle cx="24.36" cy="141.89" r="6.38" fill="#316d6f"/><circle cx="183.75" cy="120.13" r="6.37" fill="#4fa774"/><circle cx="52.03" cy="28.85" r="6.36" fill="#2c726c"/><circle cx="87.36" cy="184.54" r="6.34" fill="#2a8d71"/><circle cx="166.17" cy="46.41" r="6.33" fill="#4ca874"/><circle cx="15.34" cy="94.84" r="6.32" fill="#336c71"/><circle cx="158.71" cy="160.75" r="6.31" fill="#4aa973"/><circle cx="97.75" cy="15.88" r="6.29" fill="#2f9472"/><circle cx="45.05" cy="163.29" r="6.28" fill="#2d6f6c"/><circle cx="182.93" cy="90.48" r="6.27" fill="#4ea774"/><circle cx="32.69" cy="51.19" r="6.25" fill="#306d6e"/><circle cx="116.59" cy="181.12" r="6.24" fill="#3ba073"/><circle cx="142.38" cy="29.27" r="6.23" fill="#48aa73"/><circle cx="21.30" cy="123.43" r="6.21" fill="#326c70"/><circle cx="173.55" cy="135.74" r="6.20" fill="#4da874"/><circle cx="70.04" cy="24.29" r="6.19" fill="#2b806f"/><circle cx="71.08" cy="175.74" r="6.17" fill="#2b816f"/><circle cx="172.18" cy="63.84" r="6.16" fill="#4da874"/><circle cx="22.69" cy="78.00" r="6.15" fill="#326c6f"/><circle cx="141.96" cy="168.15" r="6.13" fill="#48aa73"/><circle cx="115.02" cy="21.76" r="6.12" fill="#3a9f73"/><circle cx="36.35" cy="147.33" r="6.10" fill="#2f6e6d"/><circle cx="178.55" cy="108.05" r="6.09" fill="#4ea774"/><circle cx="47.76" cy="41.27" r="6.08" fill="#2c6f6b"/><circle cx="98.85" cy="178.24" r="6.06" fill="#2f9572"/><circle cx="153.44" cy="43.35" r="6.05" fill="#49a973"/><circle cx="22.69" cy="105.65" r="6.03" fill="#326c6f"/><circle cx="160.54" cy="147.84" r="6.02" fill="#4ba973"/><circle cx="87.73" cy="24.20" r="6.00" fill="#2a8e71"/><circle cx="58.04" cy="163.87" r="5.99" fill="#2c766d"/><circle cx="173.72" cy="81.33" r="5.98" fill="#4da874"/><circle cx="33.36" cy="64.14" r="5.96" fill="#2f6e6e"/><circle cx="124.79" cy="171.11" r="5.95" fill="#40a673"/><circle cx="129.60" cy="31.16" r="5.93" fill="#44a973"/><circle cx="32.02" cy="130.61" r="5.92" fill="#306d6e"/><circle cx="170.44" cy="123.23" r="5.90" fill="#4ca874"/><circle cx="63.94" cy="35.62" r="5.89" fill="#2b7b6e"/><circle cx="83.19" cy="171.46" r="5.87" fill="#2a8a71"/><circle cx="160.35" cy="58.88" r="5.86" fill="#4ba973"/><circle cx="28.11" cy="89.61" r="5.84" fill="#316d6f"/><circle cx="145.75" cy="155.92" r="5.83" fill="#48aa73"/><circle cx="104.02" cy="28.26" r="5.81" fill="#339872"/><circle cx="48.86" cy="149.91" r="5.80" fill="#2c6f6b"/><circle cx="171.03" cy="97.76" r="5.78" fill="#4ca874"/><circle cx="46.41" cy="53.93" r="5.77" fill="#2c6f6b"/><circle cx="108.35" cy="169.77" r="5.75" fill="#369b72"/><circle cx="140.74" cy="43.24" r="5.73" fill="#47aa73"/><circle cx="32.02" cy="114.25" r="5.72" fill="#306d6e"/><circle cx="159.40" cy="135.20" r="5.70" fill="#4aa973"/><circle cx="80.10" cy="34.31" r="5.69" fill="#2b8870"/><circle cx="70.48" cy="161.51" r="5.67" fill="#2b806f"/><circle cx="162.93" cy="74.74" r="5.65" fill="#4eaa73"/><circle cx="36.92" cy="76.26" r="5.64" fill="#2f6e6d"/><circle cx="130.29" cy="159.74" r="5.62" fill="#44a973"/><circle cx="117.90" cy="35.90" r="5.60" fill="#3ca173"/><circle cx="43.86" cy="134.95" r="5.59" fill="#2d6f6c"/><circle cx="164.58" cy="112.07" r="5.57" fill="#4da973"/><circle cx="60.79" cy="47.82" r="5.55" fill="#2b796d"/><circle cx="93.70" cy="164.53" r="5.54" fill="#2c9272"/><circle cx="147.91" cy="56.96" r="5.52" fill="#4eac72"/><circle cx="36.04" cy="99.38" r="5.50" fill="#2f6e6d"/><circle cx="146.42" cy="143.36" r="5.49" fill="#48aa73"/><circle cx="95.10" cy="37.12" r="5.47" fill="#2d9372"/><circle cx="61.41" cy="149.32" r="5.45" fill="#2b796d"/><circle cx="161.32" cy="89.77" r="5.43" fill="#57ad70"/><circle cx="48.25" cy="66.37" r="5.41" fill="#2c6f6b"/><circle cx="115.32" cy="159.31" r="5.40" fill="#3aa073"/><circle cx="128.55" cy="46.32" r="5.38" fill="#49aa71"/><circle cx="43.13" cy="120.14" r="5.36" fill="#2d6e6c"/><circle cx="155.10" cy="123.38" r="5.34" fill="#50ab71"/><circle cx="75.36" cy="45.97" r="5.32" fill="#2b846f"/><circle cx="81.82" cy="156.03" r="5.31" fill="#2a8971"/><circle cx="150.84" cy="71.20" r="5.29" fill="#5eb16d"/><circle cx="43.53" cy="87.01" r="5.27" fill="#2d6f6c"/><circle cx="132.58" cy="147.32" r="5.25" fill="#46ab73"/><circle cx="107.87" cy="43.59" r="5.23" fill="#3a9d71"/><circle cx="56.47" cy="135.96" r="5.21" fill="#2c756c"/><circle cx="155.89" cy="102.86" r="5.19" fill="#62b26c"/><circle cx="61.08" cy="60.50" r="5.17" fill="#2b796d"/><circle cx="102.00" cy="154.91" r="5.15" fill="#319772"/><circle cx="135.28" cy="58.55" r="5.13" fill="#61b46c"/><circle cx="46.51" cy="106.67" r="5.11" fill="#2c6f6b"/><circle cx="143.52" cy="130.91" r="5.09" fill="#55af6f"/><circle cx="88.90" cy="48.33" r="5.07" fill="#2d9071"/><circle cx="73.55" cy="145.13" r="5.05" fill="#2b836f"/><circle cx="149.47" cy="84.75" r="5.03" fill="#74b967"/><circle cx="53.71" cy="78.06" r="5.00" fill="#2c736c"/><circle cx="119.10" cy="146.93" r="4.98" fill="#3fa372"/><circle cx="117.42" cy="53.02" r="4.96" fill="#58ac6b"/><circle cx="55.92" cy="122.62" r="4.94" fill="#2c756c"/><circle cx="147.23" cy="112.94" r="4.92" fill="#6fb768"/><circle cx="74.23" cy="59.04" r="4.89" fill="#2c846f"/><circle cx="91.44" cy="147.03" r="4.87" fill="#2a9072"/><circle cx="137.61" cy="71.46" r="4.85" fill="#80bd62"/><circle cx="53.59" cy="95.70" r="4.82" fill="#2c736c"/><circle cx="130.91" cy="134.07" r="4.80" fill="#5bb16d"/><circle cx="100.22" cy="54.62" r="4.78" fill="#4ca26c"/><circle cx="69.61" cy="132.85" r="4.75" fill="#2b7f6e"/><circle cx="143.97" cy="96.36" r="4.73" fill="#8ec05e"/><circle cx="65.63" cy="73.38" r="4.70" fill="#2d7e6d"/><circle cx="107.25" cy="142.20" r="4.68" fill="#3f9f70"/><circle cx="122.80" cy="64.54" r="4.65" fill="#82bb60"/><circle cx="59.89" cy="110.57" r="4.62" fill="#2b786d"/><circle cx="136.12" cy="118.98" r="4.60" fill="#80bd62"/><circle cx="86.43" cy="62.26" r="4.57" fill="#45996b"/><circle cx="84.79" cy="136.34" r="4.54" fill="#2f8e70"/><circle cx="135.10" cy="83.78" r="4.51" fill="#a8c554"/><circle cx="63.86" cy="88.47" r="4.48" fill="#307e6d"/><circle cx="118.49" cy="132.26" r="4.45" fill="#65b168"/><circle cx="107.99" cy="64.47" r="4.42" fill="#7eb760"/><circle cx="70.75" cy="120.35" r="4.39" fill="#30836e"/><circle cx="134.52" cy="104.64" r="4.36" fill="#acc553"/><circle cx="78.21" cy="73.89" r="4.33" fill="#499669"/><circle cx="98.47" cy="133.14" r="4.30" fill="#4da26b"/><circle cx="122.90" cy="77.21" r="4.26" fill="#b8c64e"/><circle cx="68.60" cy="101.30" r="4.23" fill="#3a876b"/><circle cx="123.33" cy="119.66" r="4.19" fill="#96c05a"/><circle cx="96.20" cy="70.67" r="4.16" fill="#7db45f"/><circle cx="83.55" cy="123.40" r="4.12" fill="#47986b"/><circle cx="126.96" cy="94.07" r="4.08" fill="#d2c844"/><circle cx="77.02" cy="86.68" r="4.04" fill="#569c67"/><circle cx="107.62" cy="124.31" r="4.00" fill="#7fb75f"/><circle cx="110.32" cy="77.95" r="3.95" fill="#bfc54b"/><circle cx="78.60" cy="108.83" r="3.91" fill="#549c67"/><circle cx="120.57" cy="107.51" r="3.86" fill="#cbc846"/><circle cx="90.52" cy="81.74" r="3.80" fill="#8ab75b"/><circle cx="95.03" cy="118.49" r="3.75" fill="#79b260"/><circle cx="114.86" cy="90.54" r="3.69" fill="#e2c83c"/><circle cx="84.31" cy="97.22" r="3.62" fill="#7aaf5f"/><circle cx="108.55" cy="111.15" r="3.55" fill="#bcc54c"/><circle cx="101.04" cy="88.17" r="3.46" fill="#c6c647"/><circle cx="93.22" cy="106.21" r="3.36" fill="#99bb56"/><circle cx="105.31" cy="100.00" r="3.21" fill="#d5c842"/></svg>