<svg xmlns="http://www.w3.org/2000/svg" viewBox="0 0 200 200" role="img" aria-label="10 Newtons"><circle cx="178.44" cy="52.22" r="6.59" fill="#44a06f"/><circle cx="10.19" cy="82.30" r="6.58" fill="#0c2d36"/><circle cx="154.08" cy="173.47" r="6.57" fill="#41a26e"/><circle cx="109.71" cy="9.60" r="6.56" fill="#2d916b"/><circle cx="32.01" cy="159.89" r="6.55" fill="#113d44"/><circle cx="190.28" cy="101.76" r="6.53" fill="#469f6f"/><circle cx="34.85" cy="37.93" r="6.52" fill="#124046"/><circle cx="106.10" cy="189.46" r="6.51" fill="#2b8f6a"/><circle cx="155.74" cy="30.16" r="6.50" fill="#42a16e"/><circle cx="12.04" cy="113.80" r="6.48" fill="#0d2e38"/><circle cx="173.92" cy="149.07" r="6.47" fill="#44a06f"/><circle cx="78.72" cy="14.20" r="6.46" fill="#1c7361"/><circle cx="57.88" cy="177.36" r="6.45" fill="#175755"/><circle cx="183.01" cy="71.51" r="6.43" fill="#45a06f"/><circle cx="19.84" cy="65.07" r="6.42" fill="#0f343d"/><circle cx="135.38" cy="179.61" r="6.41" fill="#3fa36e"/><circle cx="127.59" cy="17.71" r="6.40" fill="#3b9f6d"/><circle cx="24.36" cy="141.89" r="6.38" fill="#103840"/><circle cx="183.75" cy="120.13" r="6.37" fill="#45a06f"/><circle cx="52.03" cy="28.85" r="6.36" fill="#164f51"/><circle cx="87.36" cy="184.54" r="6.34" fill="#1e7e66"/><circle cx="166.17" cy="46.41" r="6.33" fill="#43a16f"/><circle cx="15.34" cy="94.84" r="6.32" fill="#0e313a"/><circle cx="158.71" cy="160.75" r="6.31" fill="#42a16e"/><circle cx="97.75" cy="15.88" r="6.29" fill="#248869"/><circle cx="45.05" cy="163.29" r="6.28" fill="#14474d"/><circle cx="182.93" cy="90.48" r="6.27" fill="#45a06f"/><circle cx="32.69" cy="51.19" r="6.25" fill="#113e45"/><circle cx="116.59" cy="181.12" r="6.24" fill="#33976c"/><circle cx="142.38" cy="29.27" r="6.23" fill="#40a26e"/><circle cx="21.30" cy="123.43" r="6.21" fill="#0f353e"/><circle cx="173.55" cy="135.74" r="6.20" fill="#44a06f"/><circle cx="70.04" cy="24.29" r="6.19" fill="#1a675c"/><circle cx="71.08" cy="175.74" r="6.17" fill="#1a685c"/><circle cx="172.18" cy="63.84" r="6.16" fill="#44a06f"/><circle cx="22.69" cy="78.00" r="6.15" fill="#0f363e"/><circle cx="141.96" cy="168.15" r="6.13" fill="#40a26e"/><circle cx="115.02" cy="21.76" r="6.12" fill="#31956b"/><circle cx="36.35" cy="147.33" r="6.10" fill="#124147"/><circle cx="178.55" cy="108.05" r="6.09" fill="#44a06f"/><circle cx="47.76" cy="41.27" r="6.08" fill="#15494f"/><circle cx="98.85" cy="178.24" r="6.06" fill="#258969"/><circle cx="153.44" cy="43.35" r="6.05" fill="#41a26e"/><circle cx="22.69" cy="105.65" r="6.03" fill="#0f363e"/><circle cx="160.54" cy="147.84" r="6.02" fill="#42a16e"/><circle cx="87.73" cy="24.20" r="6.00" fill="#1e7f66"/><circle cx="58.04" cy="163.87" r="5.99" fill="#175755"/><circle cx="173.72" cy="81.33" r="5.98" fill="#44a06f"/><circle cx="33.36" cy="64.14" r="5.96" fill="#123e45"/><circle cx="124.79" cy="171.11" r="5.95" fill="#399d6d"/><circle cx="129.60" cy="31.16" r="5.93" fill="#3ca06e"/><circle cx="32.02" cy="130.61" r="5.92" fill="#113d44"/><circle cx="170.44" cy="123.23" r="5.90" fill="#43a06f"/><circle cx="63.94" cy="35.62" r="5.89" fill="#195f58"/><circle cx="83.19" cy="171.46" r="5.87" fill="#1d7964"/><circle cx="160.35" cy="58.88" r="5.86" fill="#42a16e"/><circle cx="28.11" cy="89.61" r="5.84" fill="#103a42"/><circle cx="145.75" cy="155.92" r="5.83" fill="#41a26e"/><circle cx="104.02" cy="28.26" r="5.81" fill="#298d6a"/><circle cx="48.86" cy="149.91" r="5.80" fill="#154b4f"/><circle cx="171.03" cy="97.76" r="5.78" fill="#44a06f"/><circle cx="46.41" cy="53.93" r="5.77" fill="#15484e"/><circle cx="108.35" cy="169.77" r="5.75" fill="#2c906a"/><circle cx="140.74" cy="43.24" r="5.73" fill="#40a26e"/><circle cx="32.02" cy="114.25" r="5.72" fill="#113d44"/><circle cx="159.40" cy="135.20" r="5.70" fill="#42a16e"/><circle cx="80.10" cy="34.31" r="5.69" fill="#1c7562"/><circle cx="70.48" cy="161.51" r="5.67" fill="#1a685c"/><circle cx="162.93" cy="74.74" r="5.65" fill="#46a26e"/><circle cx="36.92" cy="76.26" r="5.64" fill="#124148"/><circle cx="130.29" cy="159.74" r="5.62" fill="#3da16e"/><circle cx="117.90" cy="35.90" r="5.60" fill="#33976c"/><circle cx="43.86" cy="134.95" r="5.59" fill="#14464c"/><circle cx="164.58" cy="112.07" r="5.57" fill="#45a26e"/><circle cx="60.79" cy="47.82" r="5.55" fill="#185b56"/><circle cx="93.70" cy="164.53" r="5.54" fill="#218568"/><circle cx="147.91" cy="56.96" r="5.52" fill="#47a46d"/><circle cx="36.04" cy="99.38" r="5.50" fill="#124047"/><circle cx="146.42" cy="143.36" r="5.49" fill="#41a26e"/><circle cx="95.10" cy="37.12" r="5.47" fill="#228669"/><circle cx="61.41" cy="149.32" r="5.45" fill="#185b57"/><circle cx="161.32" cy="89.77" r="5.43" fill="#4fa66b"/><circle cx="48.25" cy="66.37" r="5.41" fill="#154a4f"/><circle cx="115.32" cy="159.31" r="5.40" fill="#32966b"/><circle cx="128.55" cy="46.32" r="5.38" fill="#42a26c"/><circle cx="43.13" cy="120.14" r="5.36" fill="#14464c"/><circle cx="155.10" cy="123.38" r="5.34" fill="#49a46d"/><circle cx="75.36" cy="45.97" r="5.32" fill="#1b6e5f"/><circle cx="81.82" cy="156.03" r="5.31" fill="#1d7763"/><circle cx="150.84" cy="71.20" r="5.29" fill="#58ab69"/><circle cx="43.53" cy="87.01" r="5.27" fill="#14464c"/><circle cx="132.58" cy="147.32" r="5.25" fill="#3fa36e"/><circle cx="107.87" cy="43.59" r="5.23" fill="#31926a"/><circle cx="56.47" cy="135.96" r="5.21" fill="#175554"/><circle cx="155.89" cy="102.86" r="5.19" fill="#5bac68"/><circle cx="61.08" cy="60.50" r="5.17" fill="#185b56"/><circle cx="102.00" cy="154.91" r="5.15" fill="#278b6a"/><circle cx="135.28" cy="58.55" r="5.13" fill="#5bad68"/><circle cx="46.51" cy="106.67" r="5.11" fill="#15484e"/><circle cx="143.52" cy="130.91" r="5.09" fill="#4ea86b"/><circle cx="88.90" cy="48.33" r="5.07" fill="#218266"/><circle cx="73.55" cy="145.13" r="5.05" fill="#1b6c5e"/><circle cx="149.47" cy="84.75" r="5.03" fill="#6fb363"/><circle cx="53.71" cy="78.06" r="5.00" fill="#165152"/><circle cx="119.10" cy="146.93" r="4.98" fill="#379a6b"/><circle cx="117.42" cy="53.02" r="4.96" fill="#51a466"/><circle cx="55.92" cy="122.62" r="4.94" fill="#175453"/><circle cx="147.23" cy="112.94" r="4.92" fill="#6ab264"/><circle cx="74.23" cy="59.04" r="4.89" fill="#1d6e5e"/><circle cx="91.44" cy="147.03" r="4.87" fill="#1f8368"/><circle cx="137.61" cy="71.46" r="4.85" fill="#7cb95f"/><circle cx="53.59" cy="95.70" r="4.82" fill="#165152"/><circle cx="130.91" cy="134.07" r="4.80" fill="#55ab68"/><circle cx="100.22" cy="54.62" r="4.78" fill="#449864"/><circle cx="69.61" cy="132.85" r="4.75" fill="#1a665b"/><circle cx="143.97" cy="96.36" r="4.73" fill="#8abc5c"/><circle cx="65.63" cy="73.38" r="4.70" fill="#1b6359"/><circle cx="107.25" cy="142.20" r="4.68" fill="#379468"/><circle cx="122.80" cy="64.54" r="4.65" fill="#7eb65d"/><circle cx="59.89" cy="110.57" r="4.62" fill="#185956"/><circle cx="136.12" cy="118.98" r="4.60" fill="#7cb95f"/><circle cx="86.43" cy="62.26" r="4.57" fill="#3b8d62"/><circle cx="84.79" cy="136.34" r="4.54" fill="#237e64"/><circle cx="135.10" cy="83.78" r="4.51" fill="#a6c353"/><circle cx="63.86" cy="88.47" r="4.48" fill="#1e6358"/><circle cx="118.49" cy="132.26" r="4.45" fill="#5faa63"/><circle cx="107.99" cy="64.47" r="4.42" fill="#7ab15b"/><circle cx="70.75" cy="120.35" r="4.39" fill="#206c5c"/><circle cx="134.52" cy="104.64" r="4.36" fill="#aac352"/><circle cx="78.21" cy="73.89" r="4.33" fill="#3d865d"/><circle cx="98.47" cy="133.14" r="4.30" fill="#449864"/><circle cx="122.90" cy="77.21" r="4.26" fill="#b6c44d"/><circle cx="68.60" cy="101.30" r="4.23" fill="#2b705a"/><circle cx="123.33" cy="119.66" r="4.19" fill="#93bc57"/><circle cx="96.20" cy="70.67" r="4.16" fill="#78ae5a"/><circle cx="83.55" cy="123.40" r="4.12" fill="#3c8a60"/><circle cx="126.96" cy="94.07" r="4.08" fill="#d2c843"/><circle cx="77.02" cy="86.68" r="4.04" fill="#4b8d5b"/><circle cx="107.62" cy="124.31" r="4.00" fill="#7ab15b"/><circle cx="110.32" cy="77.95" r="3.95" fill="#bdc449"/><circle cx="78.60" cy="108.83" r="3.91" fill="#4a8d5c"/><circle cx="120.57" cy="107.51" r="3.86" fill="#cac746"/><circle cx="90.52" cy="81.74" r="3.80" fill="#85b156"/><circle cx="95.03" cy="118.49" r="3.75" fill="#73ab5b"/><circle cx="114.86" cy="90.54" r="3.69" fill="#e2c83c"/><circle cx="84.31" cy="97.22" r="3.62" fill="#73a658"/><circle cx="108.55" cy="111.15" r="3.55" fill="#bac34a"/><circle cx="101.04" cy="88.17" r="3.46" fill="#c5c546"/><circle cx="93.22" cy="106.21" r="3.36" fill="#95b753"/><circle cx="105.31" cy="100.00" r="3.21" fill="#d5c741"/></svg>